<?xml version="1.0" encoding="iso-8859-1"?>
<!-- Generator: Adobe Illustrator 19.0.0, SVG Export Plug-In . SVG Version: 6.00 Build 0)  -->
<svg version="1.1" id="Capa_1" xmlns="http://www.w3.org/2000/svg" xmlns:xlink="http://www.w3.org/1999/xlink" x="0px" y="0px"
	 viewBox="0 0 512 512" style="enable-background:new 0 0 512 512;" xml:space="preserve">
<g>
	<g>
		<path d="M361,0c-24.813,0-45,20.187-45,45v46.851c-3.92-1.2-8.078-1.851-12.386-1.851h-5.229
			c-10.434,0-19.993,3.797-27.386,10.072C263.607,93.797,254.048,90,243.614,90h-5.228c-10.824,0-20.708,4.083-28.207,10.784
			C202.316,94.068,192.127,90,181,90c-24.813,0-45,20.187-45,45v47.58c-17.459,6.192-30,22.865-30,42.42v64.434
			c0,38.355,16.539,76.269,47.829,109.642c7.849,8.371,12.171,19.301,12.171,30.777c0,24.781,0,57.454,0,82.147h210v-92.836
			c0-15.525,7.458-24.044,12.58-35.784c11.396-22.792,17.42-48.308,17.42-73.79c0-11.602,0-254.126,0-264.59
			C406,20.187,385.813,0,361,0z M286,132.386c0-6.83,5.557-12.386,12.386-12.386h5.229c6.829,0,12.386,5.556,12.386,12.386
			c0,9.11,0,85.147,0,95.228c0,6.83-5.557,12.386-12.386,12.386h-5.229c-6.829,0-12.386-5.556-12.386-12.386
			C286,215.88,286,142.125,286,132.386z M226,132.386c0-6.83,5.557-12.386,12.386-12.386h5.228c6.83,0,12.386,5.556,12.386,12.386
			V180h-30c0,0-0.032-46.748-0.082-47.614H226z M166,135c0-8.271,6.729-15,15-15s15,6.729,15,15v45h-30V135z M376,309.59
			c0,20.849-4.929,41.726-14.252,60.374c-4.358,10.41-15.748,24.761-15.748,49.2V482H196c0-15.563,0-35.617,0-52.147
			c0-19.127-7.204-37.344-20.286-51.297C157.597,359.233,136,328.085,136,289.434V225c0-8.271,6.729-15.1,15-15.1h102.43
			C247.239,227.361,230.556,240,211,240h-30v30c41.355,0,75,33.645,75,75h30c0-33.818-16.071-63.954-40.977-83.171
			c6.304-3.223,12.089-7.319,17.209-12.116c7.46,12.158,20.874,20.287,36.154,20.287h5.229c23.37,0,42.385-19.014,42.385-42.386
			c0-4.63,0-177.392,0-182.614c0-8.271,6.729-15,15-15s15,6.729,15,15C376,55.513,376,297.986,376,309.59z"/>
	</g>
</g>
<g>
</g>
<g>
</g>
<g>
</g>
<g>
</g>
<g>
</g>
<g>
</g>
<g>
</g>
<g>
</g>
<g>
</g>
<g>
</g>
<g>
</g>
<g>
</g>
<g>
</g>
<g>
</g>
<g>
</g>
</svg>
